<svg xmlns="http://www.w3.org/2000/svg" version="1.1" xmlns:xlink="http://www.w3.org/1999/xlink" xmlns:svgjs="http://svgjs.dev/svgjs" width="2000" height="525" viewBox="0 0 2000 525"><g transform="matrix(1,0,0,1,-1.2121212121212466,-1.349985518734627)"><svg viewBox="0 0 396 104" data-background-color="#49243e" preserveAspectRatio="xMidYMid meet" height="525" width="2000" xmlns="http://www.w3.org/2000/svg" xmlns:xlink="http://www.w3.org/1999/xlink"><g id="tight-bounds" transform="matrix(1,0,0,1,0.2400000000000091,0.2674257027588567)"><svg viewBox="0 0 395.52 103.46502329062146" height="103.46502329062146" width="395.52"><g><svg viewBox="0 0 570.1420352780112 149.14481937449878" height="103.46502329062146" width="395.52"><g transform="matrix(1,0,0,1,174.62203527801123,20.612634226142745)"><svg viewBox="0 0 395.52 107.91955092221329" height="107.91955092221329" width="395.52"><g id="textblocktransform"><svg viewBox="0 0 395.52 107.91955092221329" height="107.91955092221329" width="395.52" id="textblock"><g><svg viewBox="0 0 395.52 107.91955092221329" height="107.91955092221329" width="395.52"><g transform="matrix(1,0,0,1,0,0)"><svg width="395.52" viewBox="1.75 -33.48 124.69 34.029999999999994" height="107.91955092221329" data-palette-color="#dbafa0"><path d="M10.93 0.55L10.93 0.55Q7.98 0.55 5.78-0.09 3.58-0.73 2.13-1.48L2.13-1.48 1.75-5.23Q3.58-4.28 5.76-3.58 7.95-2.88 10.73-2.88L10.73-2.88Q13.55-2.88 14.98-3.78 16.4-4.67 16.4-6.45L16.4-6.45 16.4-6.73Q16.4-7.88 15.86-8.63 15.33-9.38 13.93-9.95 12.53-10.53 9.95-11.1L9.95-11.1Q6.88-11.78 5.1-12.69 3.33-13.6 2.56-14.95 1.8-16.3 1.8-18.25L1.8-18.25 1.8-18.48Q1.8-21.68 4.03-23.33 6.25-24.98 10.73-24.98L10.73-24.98Q13.6-24.98 15.71-24.33 17.82-23.68 19.18-22.88L19.18-22.88 19.55-19.45Q17.93-20.4 15.83-21.03 13.73-21.65 11.1-21.65L11.1-21.65Q9.2-21.65 8.03-21.26 6.85-20.88 6.33-20.16 5.8-19.45 5.8-18.45L5.8-18.45 5.8-18.25Q5.8-17.15 6.33-16.39 6.85-15.63 8.21-15.06 9.58-14.5 12-13.98L12-13.98Q15.13-13.35 16.96-12.48 18.8-11.6 19.6-10.26 20.4-8.93 20.4-6.83L20.4-6.83 20.4-6.4Q20.4-2.95 18-1.2 15.6 0.55 10.93 0.55ZM35.55 0.55L35.55 0.55Q29.97 0.55 27.15-2.18 24.32-4.9 24.32-9.98L24.32-9.98 24.32-14.33Q24.32-19.48 26.95-22.26 29.57-25.05 34.62-25.05L34.62-25.05Q38.02-25.05 40.3-23.79 42.57-22.53 43.72-20.2 44.87-17.88 44.87-14.65L44.87-14.65 44.87-13.75Q44.87-12.95 44.81-12.15 44.75-11.35 44.65-10.58L44.65-10.58 40.92-10.58Q40.97-11.78 40.98-12.85 41-13.93 41-14.83L41-14.83Q41-17.05 40.28-18.59 39.57-20.13 38.16-20.94 36.75-21.75 34.62-21.75L34.62-21.75Q31.47-21.75 29.9-19.93 28.32-18.1 28.32-14.7L28.32-14.7 28.32-12.38 28.35-11.88 28.35-9.55Q28.35-8.03 28.8-6.8 29.25-5.58 30.21-4.69 31.17-3.8 32.66-3.34 34.15-2.88 36.2-2.88L36.2-2.88Q38.57-2.88 40.62-3.5 42.67-4.13 44.47-5.2L44.47-5.2 44.1-1.7Q42.47-0.68 40.32-0.06 38.17 0.55 35.55 0.55ZM43.8-13.63L43.8-10.58 26.45-10.58 26.45-13.63 43.8-13.63ZM70.64-15.63L70.64 0 66.59 0 66.59-15.18Q66.59-17.15 66.06-18.57 65.52-20 64.31-20.79 63.09-21.58 60.99-21.58L60.99-21.58Q59.07-21.58 57.66-20.85 56.24-20.13 55.37-18.89 54.49-17.65 54.14-16.07L54.14-16.07 53.42-18.95 54.3-18.95Q54.7-20.6 55.7-21.96 56.7-23.33 58.38-24.14 60.07-24.95 62.52-24.95L62.52-24.95Q65.42-24.95 67.21-23.85 69-22.75 69.82-20.69 70.64-18.63 70.64-15.63L70.64-15.63ZM54.32-18.32L54.32 0 50.27 0 50.27-24.4 54.32-24.4 54.14-18.55 54.32-18.32ZM81.04-24.4L81.04 0 76.99 0 76.99-24.4 81.04-24.4ZM79.02-28.4L79.02-28.4Q77.77-28.4 77.16-29.06 76.54-29.73 76.54-30.88L76.54-30.88 76.54-31Q76.54-32.18 77.16-32.83 77.77-33.48 79.02-33.48L79.02-33.48Q80.27-33.48 80.89-32.83 81.52-32.18 81.52-31L81.52-31 81.52-30.88Q81.52-29.7 80.89-29.05 80.27-28.4 79.02-28.4ZM91.59-14.93L91.59-14.93 90.67-18.05 91.67-18.1Q92.47-21.2 94.42-22.99 96.37-24.78 99.59-24.78L99.59-24.78Q100.39-24.78 101.03-24.65 101.67-24.53 102.17-24.35L102.17-24.35 102.42-20.43Q101.79-20.63 101.03-20.75 100.27-20.88 99.34-20.88L99.34-20.88Q96.59-20.88 94.55-19.35 92.52-17.82 91.59-14.93ZM91.79-16.9L91.79 0 87.74 0 87.74-24.4 91.69-24.4 91.49-17.2 91.79-16.9ZM106.09-8.78L106.09-24.4 110.11-24.4 110.11-9.22Q110.11-7.3 110.65-5.86 111.19-4.42 112.41-3.64 113.64-2.85 115.71-2.85L115.71-2.85Q117.66-2.85 119.06-3.56 120.46-4.28 121.35-5.53 122.24-6.78 122.56-8.35L122.56-8.35 123.29-5.48 122.41-5.48Q122.04-3.83 121.04-2.46 120.04-1.1 118.35-0.29 116.66 0.53 114.19 0.53L114.19 0.53Q111.31 0.53 109.53-0.56 107.74-1.65 106.91-3.74 106.09-5.83 106.09-8.78L106.09-8.78ZM122.39-6.1L122.39-24.4 126.44-24.4 126.44 0 122.39 0 122.56-5.85 122.39-6.1Z" opacity="1" transform="matrix(1,0,0,1,0,0)" fill="#dbafa0" class="wordmark-text-0" data-fill-palette-color="primary" id="text-0"></path></svg></g></svg></g></svg></g></svg></g><g><svg viewBox="0 0 149.1448193744988 149.14481937449878" height="149.14481937449878" width="149.1448193744988"><g><svg></svg></g><g id="icon-0"><svg viewBox="0 0 149.1448193744988 149.14481937449878" height="149.14481937449878" width="149.1448193744988"><g><path transform="scale(1.49145,1.49145)" d="M30 100c-16.569 0-30-13.431-30-30v-40c0-16.569 13.431-30 30-30h40c16.569 0 30 13.431 30 30v40c0 16.569-13.431 30-30 30z" fill="#704264" fill-rule="nonzero" stroke="none" stroke-width="1" stroke-linecap="butt" stroke-linejoin="miter" stroke-miterlimit="10" stroke-dasharray="" stroke-dashoffset="0" font-family="none" font-weight="none" font-size="none" text-anchor="none" style="mix-blend-mode: normal" data-fill-palette-color="accent"></path></g><g transform="matrix(1,0,0,1,34.30330845613474,29.828963874899756)"><svg viewBox="0 0 80.53820246222934 89.48689162469927" height="89.48689162469927" width="80.53820246222934"><g><svg xmlns="http://www.w3.org/2000/svg" xmlns:xlink="http://www.w3.org/1999/xlink" version="1.1" x="0" y="0" viewBox="13 10 54 60" enable-background="new 0 0 80 80" xml:space="preserve" height="89.48689162469927" width="80.53820246222934" class="icon-dxe-0" data-fill-palette-color="quaternary" id="dxe-0"><g fill="#dbafa0" data-fill-palette-color="quaternary"><path fill="#dbafa0" d="M51 31C51 40.4 43.2 47 39 47S27 40.4 27 31 32.4 17 39 17 51 21.6 51 31" data-fill-palette-color="quaternary"></path></g><g fill="#dbafa0" data-fill-palette-color="quaternary"><path fill="#dbafa0" d="M34 48L35.8 57 39 63 42.2 57 44 48 40.9 49.3C39.7 49.8 38.4 49.8 37.2 49.3z" data-fill-palette-color="quaternary"></path></g><g fill="#dbafa0" data-fill-palette-color="quaternary"><path fill="#dbafa0" d="M32 50L19.6 55.8C17.9 56.6 16.7 58 16.1 59.8L13 70H67L63 58.8C62.4 57 60.9 55.6 59.1 54.9L46 50 45 58 39 66 33 58z" data-fill-palette-color="quaternary"></path></g><g fill="#dbafa0" data-fill-palette-color="quaternary"><path fill="#dbafa0" d="M51 28S52 28.7 52 31 51 35 51 35" data-fill-palette-color="quaternary"></path></g><g fill="#dbafa0" data-fill-palette-color="quaternary"><path fill="#dbafa0" d="M27 28S26 28.7 26 31 27 35 27 35" data-fill-palette-color="quaternary"></path></g><g fill="#dbafa0" data-fill-palette-color="quaternary"><path fill="#dbafa0" d="M50 30C49.6 29.6 51 25 51 25L50 20 47 17 44 14 41 11 39 10 38 12 37 14 34 15 32 16 30 18 29 20 28 21 27 23V29L29 30 40 32z" data-fill-palette-color="quaternary"></path></g></svg></g></svg></g></svg></g></svg></g></svg></g><defs></defs></svg><rect width="395.52" height="103.46502329062146" fill="none" stroke="none" visibility="hidden"></rect></g></svg></g></svg>